<svg xmlns="http://www.w3.org/2000/svg" width="512" height="512" viewBox="0 0 24 24"><g fill="none" fill-rule="evenodd"><path d="M24 0v24H0V0zM12.594 23.258l-.012.002-.071.035-.02.004-.014-.004-.071-.036c-.01-.003-.019 0-.024.006l-.004.01-.017.428.005.02.01.013.104.074.015.004.012-.004.104-.074.012-.016.004-.017-.017-.427c-.002-.01-.009-.017-.016-.018m.264-.113l-.014.002-.184.093-.01.01-.003.011.018.43.005.012.008.008.201.092c.012.004.023 0 .029-.008l.004-.014-.034-.614c-.003-.012-.01-.02-.02-.022m-.715.002a.023.023 0 00-.027.006l-.006.014-.034.614c0 .012.007.02.017.024l.015-.002.201-.093.01-.008.003-.011.018-.43-.003-.012-.01-.01z"/><path fill="#818cf8" d="M10.137 6.74l.168 2.188.25-.166A1 1 0 0011 7.93V4a1 1 0 112 0v3.93a1 1 0 00.445.832l.25.166.168-2.189c.121-1.573 1.932-2.393 3.194-1.446l.585.438a7 7 0 012.719 4.536l1.08 7.019c.358 2.327-1.983 4.14-4.147 3.213l-1.056-.452a5 5 0 01-3.015-4.98l.296-3.857a1.027 1.027 0 01-.074-.045l-1.109-.74a3.017 3.017 0 01-.336-.26 2.737 2.737 0 01-.336.26l-1.11.74a1.072 1.072 0 01-.073.045l.297 3.858a5 5 0 01-3.016 4.98l-1.055.451c-2.165.928-4.505-.886-4.147-3.213l1.08-7.02a7 7 0 012.718-4.535l.585-.438c1.262-.947 3.073-.127 3.194 1.446m-1.994.153l-.585.438a5 5 0 00-1.942 3.24l-1.08 7.019A1 1 0 005.92 18.66l1.055-.452a3 3 0 001.81-2.988zm8.299.438l-.585-.438-.64 8.328a3 3 0 001.81 2.988l1.054.452a1 1 0 001.383-1.071l-1.08-7.019a5 5 0 00-1.942-3.24"/></g></svg>